PathFileType	4	(X/Y/Z)	C:\Users\WrightLab\Desktop\Jo\P2_Trial21.trc
DataRate	CameraRate	NumFrames	NumMarkers	Units	OrigDataRate	OrigDataStartFrame	OrigNumFrames
100.00	100.00	       16	19	mm	100.00	76	       600
Frame#	Time	Headset_Front			Headset_Back			Headset_Left			Headset_Right			Left_Shoulder			Right_Shoulder			Sternum			C7			Left Elbow			Right Elbow			Left Wrist			Right Wrist			Left ASIS			Right ASIS			S2			Left Knee			Right Knee			Left Ankle			Right Ankle			
		X1	Y1	Z1	X2	Y2	Z2	X3	Y3	Z3	X4	Y4	Z4	X5	Y5	Z5	X6	Y6	Z6	X7	Y7	Z7	X8	Y8	Z8	X9	Y9	Z9	X10	Y10	Z10	X11	Y11	Z11	X12	Y12	Z12	X13	Y13	Z13	X14	Y14	Z14	X15	Y15	Z15	X16	Y16	Z16	X17	Y17	Z17	X18	Y18	Z18	X19	Y19	Z19	

76	0.750				-476.91959	1413.61597	-733.41254				-746.34723	1501.27039	-716.02063				-717.38489	1421.13367	-932.47961	-642.99072	1294.71362	-791.20715	-536.07898	1408.13098	-930.82062	-378.89465	1149.87964	-621.59851										-641.55701	1005.27155	-735.50177	-729.36639	982.32727	-832.85748	-819.69733	1161.73889	-1079.42419	-557.67999	431.05225	-686.95221	-502.92468	907.57855	-911.48193	-616.99890	82.23007	-702.68188				
77	0.760	-662.85956	1433.64307	-604.21442	-483.14767	1415.53564	-727.45825				-753.09430	1502.49231	-708.90179				-722.43842	1422.72058	-926.85547	-648.34027	1296.06079	-784.49237	-541.02863	1410.38672	-923.82874	-387.93442	1151.34143	-613.60828										-647.13696	1006.44342	-733.50989	-736.02490	983.82172	-827.64471	-821.55713	1162.97241	-1079.22266	-558.40015	430.63345	-686.85754	-506.93491	909.36743	-905.07507	-614.76685	83.21198	-700.85095				
78	0.770				-490.38815	1416.33582	-716.19098				-758.85675	1503.34009	-702.07800				-727.36987	1424.32483	-921.13147	-655.24237	1296.82324	-778.43695	-546.15948	1412.23499	-916.45227	-394.34534	1151.98669	-604.72333										-652.54364	1008.16174	-726.42847	-739.80127	984.24213	-822.22400	-825.28351	1166.48669	-1070.20630	-559.29938	432.01694	-685.78668	-511.80136	911.25189	-899.00153	-611.92072	81.39141	-701.00873				
79	0.780	-675.61572	1435.13257	-591.08563	-497.63507	1418.68420	-710.37860				-765.64307	1504.44775	-695.44409				-732.34491	1425.68127	-916.07550	-660.99451	1298.23962	-771.42017	-551.16571	1413.98816	-908.96082	-402.41876	1153.65881	-597.83215										-658.24634	1009.76221	-721.98016	-744.81146	986.09015	-817.15100	-829.72437	1168.07874	-1068.50513	-559.81885	432.59210	-684.79938	-517.48621	913.98358	-894.13239	-608.87262	82.47716	-698.84290				
80	0.790				-504.65942	1420.12207	-702.57996				-771.55316	1504.82678	-688.30835				-737.24573	1427.18323	-910.48895	-667.63892	1299.44409	-765.90564	-556.17664	1415.78992	-902.12488	-410.98392	1155.55847	-590.39709										-663.86334	1010.31799	-715.78314	-749.42511	988.06165	-812.43152	-832.15009	1169.84973	-1065.76978	-561.55286	433.03314	-683.49335	-522.19904	915.04950	-888.13574	-606.92969	82.90881	-697.02600				
81	0.800				-510.96823	1421.43896	-696.05365				-777.33185	1505.38330	-681.58575				-742.13287	1428.42419	-904.76105	-672.93134	1300.22559	-760.56683	-561.28271	1417.32251	-895.11676	-418.00919	1156.94958	-582.80096										-669.26721	1012.11810	-709.68024	-754.07825	989.49146	-807.04596	-834.85242	1171.36169	-1060.14172	-562.07141	434.00394	-681.59204	-527.36023	916.57080	-882.29095	-604.60065	81.07302	-697.37811				
82	0.810				-518.12091	1421.92358	-685.81458				-784.12646	1506.08203	-674.62225				-747.07227	1429.69336	-899.34320	-679.61298	1301.78333	-755.56769	-566.37189	1418.71582	-887.82172	-425.47415	1157.44348	-575.90594										-676.21246	1013.70599	-705.26184	-760.05200	991.68756	-802.56781	-840.44916	1172.71912	-1058.06165	-563.27802	435.19559	-681.00189	-532.31781	917.73883	-876.58765	-600.32404	83.11003	-692.74017				
83	0.820	-700.15045	1435.66858	-564.59283	-524.67273	1423.27075	-679.91211				-790.07666	1506.18689	-667.48230				-751.91803	1430.88892	-894.46887	-685.59888	1302.51355	-749.44379	-571.47101	1420.01440	-880.57306	-432.54260	1158.49377	-568.09003										-680.40509	1014.75940	-696.67700	-765.73468	992.14758	-796.66681	-843.06885	1174.94385	-1052.98938	-564.64856	435.62677	-679.70551	-537.52820	918.92285	-870.91425	-597.87305	83.44133	-690.07904				
84	0.830				-531.96362	1423.60925	-669.86420				-795.63318	1505.82434	-660.93719				-756.89923	1431.91687	-888.66937	-691.68262	1303.24487	-743.04291	-576.62201	1421.14526	-874.28455	-438.63232	1159.15552	-561.06671										-687.26746	1014.80811	-694.38318	-771.32623	993.33466	-792.19543	-845.00171	1176.16968	-1049.76990	-565.29083	436.16611	-678.09802	-542.26031	919.32599	-865.10883	-595.65295	81.69778	-688.06097				
85	0.840	-710.33728	1434.79443	-550.78967	-538.45648	1424.71851	-664.31293				-802.55237	1506.83337	-655.24463				-761.75464	1432.93274	-883.58484	-697.64539	1303.96875	-737.69659	-581.73126	1422.11304	-867.42468	-445.16428	1159.25562	-554.25403										-693.04401	1015.48364	-688.98138	-776.98633	994.47479	-787.87524	-850.69012	1177.34924	-1048.03625	-565.11597	436.10962	-676.62848	-546.76422	920.33209	-859.61853	-593.84430	81.58781	-685.82941				
86	0.850										-808.33228	1505.87317	-648.17102				-766.76080	1433.65295	-878.26721	-704.00702	1304.42834	-731.48663	-587.04840	1422.36536	-860.52234	-452.24353	1159.99390	-546.82556										-698.71759	1015.98608	-681.33197	-782.17969	995.39618	-782.73029	-854.10284	1180.76355	-1035.08142	-566.15131	436.70938	-675.31207	-551.49548	921.02942	-853.64117	-591.06781	81.19338	-682.15283				
87	0.860	-723.50476	1434.01379	-538.91699							-813.90021	1505.11243	-641.33167	-550.93408	1425.10828	-649.59991	-771.75677	1434.27307	-872.80280	-709.60480	1305.00793	-726.53149	-592.21881	1423.12622	-853.92487	-458.74484	1159.93994	-539.93201										-705.14404	1016.83777	-676.37665	-788.51569	996.94403	-778.01636	-856.83356	1181.43677	-1030.78284	-565.61005	436.98325	-673.50653	-556.70679	921.51532	-848.53284	-589.54608	80.87431	-680.12012				
88	0.870										-819.86804	1504.53015	-634.63824	-557.16681	1425.44153	-642.99750	-776.95728	1434.71436	-867.47711	-716.39673	1305.51318	-720.17365	-597.43420	1423.74707	-847.22577	-465.45956	1160.02002	-533.40271										-710.20825	1017.24670	-670.58374	-792.87811	996.22314	-773.02673	-861.77441	1182.24219	-1026.76355	-566.77374	436.85364	-671.10046	-561.85638	922.56213	-842.84235	-586.44543	80.20281	-677.47986				
89	0.880										-826.62866	1504.11597	-627.82178	-563.63715	1424.96558	-634.15582	-782.13666	1435.03723	-861.75867	-721.50391	1305.76428	-714.96521	-602.81232	1423.85669	-840.80896	-471.19394	1159.29907	-527.25055										-717.20435	1017.92670	-667.17737	-798.85480	996.94507	-768.29938	-866.15875	1183.16431	-1021.73016	-570.37787	435.65161	-674.25555	-566.55151	923.02258	-837.45715	-582.81873	79.52425	-675.12109				
90	0.890				-709.24561	1669.63757	-718.38733				-832.04730	1503.32324	-621.52924	-569.56879	1425.65796	-630.11450	-787.38458	1435.32507	-856.25940	-728.25970	1305.70886	-709.67334	-608.17792	1424.30322	-834.68854	-478.20349	1159.55237	-520.68085										-722.23132	1017.19794	-661.77460	-804.59875	997.73840	-763.06531	-870.22021	1182.89685	-1016.61115	-571.26556	435.65295	-673.87018	-573.20251	923.20874	-831.45135	-579.20819	79.84386	-671.60181				
91	0.900	-744.67517	1429.99817	-513.07092	-715.60419	1669.46106	-711.44586				-837.44446	1502.42419	-614.85742	-575.58356	1425.36755	-623.06921	-792.78235	1435.44714	-850.16510	-733.50256	1305.28186	-703.17084	-613.72626	1424.28540	-827.84106	-484.55704	1159.23584	-514.40045										-728.39441	1016.45105	-657.13739	-809.82251	996.76141	-757.24091	-875.42841	1183.48279	-1011.67230	-573.65173	435.02023	-672.06146	-578.30023	923.09998	-825.94623	-578.24353	80.06088	-670.40167				
